<svg id="visual" viewBox="0 0 900 600" width="900" height="600" xmlns="http://www.w3.org/2000/svg" xmlns:xlink="http://www.w3.org/1999/xlink" version="1.1"><g stroke-width="1" stroke-linejoin="bevel"><path d="M488 274L518 205L411 191Z" fill="#205a7a" stroke="#205a7a"></path><path d="M518 205L523 97L411 191Z" fill="#1d4e6b" stroke="#1d4e6b"></path><path d="M411 191L367 336L488 274Z" fill="#1d4e6b" stroke="#1d4e6b"></path><path d="M479 408L581 319L488 274Z" fill="#205a7a" stroke="#205a7a"></path><path d="M488 274L581 319L518 205Z" fill="#00101c" stroke="#00101c"></path><path d="M518 205L577 108L523 97Z" fill="#112e42" stroke="#112e42"></path><path d="M581 319L615 181L518 205Z" fill="#081a28" stroke="#081a28"></path><path d="M385 70L307 177L411 191Z" fill="#19435d" stroke="#19435d"></path><path d="M411 191L298 299L367 336Z" fill="#00101c" stroke="#00101c"></path><path d="M615 181L577 108L518 205Z" fill="#00101c" stroke="#00101c"></path><path d="M523 97L385 70L411 191Z" fill="#112e42" stroke="#112e42"></path><path d="M307 177L298 299L411 191Z" fill="#00101c" stroke="#00101c"></path><path d="M412 420L479 408L367 336Z" fill="#0c2435" stroke="#0c2435"></path><path d="M367 336L479 408L488 274Z" fill="#205a7a" stroke="#205a7a"></path><path d="M292 393L412 420L367 336Z" fill="#00101c" stroke="#00101c"></path><path d="M561 0L478 0L523 97Z" fill="#297ea6" stroke="#297ea6"></path><path d="M523 97L478 0L385 70Z" fill="#1d4e6b" stroke="#1d4e6b"></path><path d="M478 0L421 0L385 70Z" fill="#00101c" stroke="#00101c"></path><path d="M385 70L292 63L307 177Z" fill="#19435d" stroke="#19435d"></path><path d="M281 0L292 63L385 70Z" fill="#112e42" stroke="#112e42"></path><path d="M307 177L209 264L298 299Z" fill="#081a28" stroke="#081a28"></path><path d="M298 299L292 393L367 336Z" fill="#1d4e6b" stroke="#1d4e6b"></path><path d="M209 264L292 393L298 299Z" fill="#15384f" stroke="#15384f"></path><path d="M479 408L589 427L581 319Z" fill="#081a28" stroke="#081a28"></path><path d="M735 189L700 107L615 181Z" fill="#205a7a" stroke="#205a7a"></path><path d="M505 499L589 427L479 408Z" fill="#0c2435" stroke="#0c2435"></path><path d="M577 108L561 0L523 97Z" fill="#112e42" stroke="#112e42"></path><path d="M660 0L561 0L577 108Z" fill="#205a7a" stroke="#205a7a"></path><path d="M333 491L417 473L412 420Z" fill="#112e42" stroke="#112e42"></path><path d="M412 420L417 473L479 408Z" fill="#277297" stroke="#277297"></path><path d="M184 195L209 264L307 177Z" fill="#277297" stroke="#277297"></path><path d="M735 189L615 181L721 314Z" fill="#277297" stroke="#277297"></path><path d="M615 181L700 107L577 108Z" fill="#112e42" stroke="#112e42"></path><path d="M721 314L615 181L581 319Z" fill="#1d4e6b" stroke="#1d4e6b"></path><path d="M589 427L721 314L581 319Z" fill="#081a28" stroke="#081a28"></path><path d="M209 88L184 195L307 177Z" fill="#297ea6" stroke="#297ea6"></path><path d="M417 473L505 499L479 408Z" fill="#15384f" stroke="#15384f"></path><path d="M589 427L736 412L721 314Z" fill="#081a28" stroke="#081a28"></path><path d="M292 63L209 88L307 177Z" fill="#00101c" stroke="#00101c"></path><path d="M281 0L209 88L292 63Z" fill="#297ea6" stroke="#297ea6"></path><path d="M421 0L281 0L385 70Z" fill="#246688" stroke="#246688"></path><path d="M505 499L617 472L589 427Z" fill="#081a28" stroke="#081a28"></path><path d="M788 0L660 0L700 107Z" fill="#246688" stroke="#246688"></path><path d="M700 107L660 0L577 108Z" fill="#0c2435" stroke="#0c2435"></path><path d="M292 393L333 491L412 420Z" fill="#081a28" stroke="#081a28"></path><path d="M417 473L464 600L505 499Z" fill="#277297" stroke="#277297"></path><path d="M193 464L333 491L292 393Z" fill="#00101c" stroke="#00101c"></path><path d="M735 189L770 104L700 107Z" fill="#19435d" stroke="#19435d"></path><path d="M816 238L770 104L735 189Z" fill="#15384f" stroke="#15384f"></path><path d="M617 472L690 463L589 427Z" fill="#19435d" stroke="#19435d"></path><path d="M721 314L799 295L735 189Z" fill="#15384f" stroke="#15384f"></path><path d="M662 600L690 463L617 472Z" fill="#112e42" stroke="#112e42"></path><path d="M690 463L736 412L589 427Z" fill="#297ea6" stroke="#297ea6"></path><path d="M820 389L799 295L721 314Z" fill="#112e42" stroke="#112e42"></path><path d="M97 88L115 166L209 88Z" fill="#081a28" stroke="#081a28"></path><path d="M209 88L115 166L184 195Z" fill="#112e42" stroke="#112e42"></path><path d="M184 195L84 268L209 264Z" fill="#1d4e6b" stroke="#1d4e6b"></path><path d="M209 264L160 402L292 393Z" fill="#297ea6" stroke="#297ea6"></path><path d="M84 268L160 402L209 264Z" fill="#1d4e6b" stroke="#1d4e6b"></path><path d="M281 0L185 0L209 88Z" fill="#15384f" stroke="#15384f"></path><path d="M799 295L816 238L735 189Z" fill="#205a7a" stroke="#205a7a"></path><path d="M160 402L193 464L292 393Z" fill="#19435d" stroke="#19435d"></path><path d="M372 600L464 600L417 473Z" fill="#297ea6" stroke="#297ea6"></path><path d="M505 499L582 600L617 472Z" fill="#112e42" stroke="#112e42"></path><path d="M372 600L417 473L333 491Z" fill="#112e42" stroke="#112e42"></path><path d="M115 166L84 268L184 195Z" fill="#0c2435" stroke="#0c2435"></path><path d="M160 402L119 531L193 464Z" fill="#112e42" stroke="#112e42"></path><path d="M185 0L97 88L209 88Z" fill="#297ea6" stroke="#297ea6"></path><path d="M115 166L0 192L84 268Z" fill="#15384f" stroke="#15384f"></path><path d="M300 600L372 600L333 491Z" fill="#0c2435" stroke="#0c2435"></path><path d="M900 79L788 0L770 104Z" fill="#081a28" stroke="#081a28"></path><path d="M770 104L788 0L700 107Z" fill="#277297" stroke="#277297"></path><path d="M763 487L820 389L736 412Z" fill="#0c2435" stroke="#0c2435"></path><path d="M736 412L820 389L721 314Z" fill="#0c2435" stroke="#0c2435"></path><path d="M900 281L900 206L816 238Z" fill="#205a7a" stroke="#205a7a"></path><path d="M763 487L736 412L690 463Z" fill="#246688" stroke="#246688"></path><path d="M464 600L582 600L505 499Z" fill="#0c2435" stroke="#0c2435"></path><path d="M662 600L763 487L690 463Z" fill="#246688" stroke="#246688"></path><path d="M84 268L78 369L160 402Z" fill="#112e42" stroke="#112e42"></path><path d="M216 600L333 491L193 464Z" fill="#081a28" stroke="#081a28"></path><path d="M216 600L300 600L333 491Z" fill="#00101c" stroke="#00101c"></path><path d="M582 600L662 600L617 472Z" fill="#15384f" stroke="#15384f"></path><path d="M185 0L89 0L97 88Z" fill="#246688" stroke="#246688"></path><path d="M0 119L0 192L115 166Z" fill="#00101c" stroke="#00101c"></path><path d="M84 268L0 277L78 369Z" fill="#297ea6" stroke="#297ea6"></path><path d="M900 281L816 238L799 295Z" fill="#297ea6" stroke="#297ea6"></path><path d="M816 238L900 206L770 104Z" fill="#15384f" stroke="#15384f"></path><path d="M820 389L900 281L799 295Z" fill="#0c2435" stroke="#0c2435"></path><path d="M900 404L900 281L820 389Z" fill="#081a28" stroke="#081a28"></path><path d="M119 531L216 600L193 464Z" fill="#277297" stroke="#277297"></path><path d="M900 206L900 79L770 104Z" fill="#205a7a" stroke="#205a7a"></path><path d="M78 369L119 531L160 402Z" fill="#19435d" stroke="#19435d"></path><path d="M0 119L115 166L97 88Z" fill="#0c2435" stroke="#0c2435"></path><path d="M78 369L0 493L119 531Z" fill="#297ea6" stroke="#297ea6"></path><path d="M0 192L0 277L84 268Z" fill="#297ea6" stroke="#297ea6"></path><path d="M0 0L0 119L97 88Z" fill="#205a7a" stroke="#205a7a"></path><path d="M900 510L820 389L763 487Z" fill="#00101c" stroke="#00101c"></path><path d="M900 510L900 404L820 389Z" fill="#277297" stroke="#277297"></path><path d="M900 79L900 0L788 0Z" fill="#19435d" stroke="#19435d"></path><path d="M662 600L776 600L763 487Z" fill="#246688" stroke="#246688"></path><path d="M0 277L0 398L78 369Z" fill="#277297" stroke="#277297"></path><path d="M0 600L121 600L119 531Z" fill="#0c2435" stroke="#0c2435"></path><path d="M119 531L121 600L216 600Z" fill="#0c2435" stroke="#0c2435"></path><path d="M89 0L0 0L97 88Z" fill="#205a7a" stroke="#205a7a"></path><path d="M776 600L900 510L763 487Z" fill="#297ea6" stroke="#297ea6"></path><path d="M0 398L0 493L78 369Z" fill="#277297" stroke="#277297"></path><path d="M776 600L900 600L900 510Z" fill="#00101c" stroke="#00101c"></path><path d="M0 493L0 600L119 531Z" fill="#0c2435" stroke="#0c2435"></path></g></svg>